<?xml version="1.0" encoding="UTF-8" standalone="no" ?>
<!DOCTYPE svg PUBLIC "-//W3C//DTD SVG 1.1//EN" "http://www.w3.org/Graphics/SVG/1.1/DTD/svg11.dtd">
<svg xmlns="http://www.w3.org/2000/svg" xmlns:xlink="http://www.w3.org/1999/xlink" version="1.1" width="1080" height="1080" viewBox="0 0 1080 1080" xml:space="preserve">
<desc>Created with Fabric.js 5.2.4</desc>
<defs>
</defs>
<g transform="matrix(1 0 0 1 540 540)" id="51cfbf18-b82e-48b7-9520-ff73c5a73486"  >
<rect style="stroke: none; stroke-width: 1; stroke-dasharray: none; stroke-linecap: butt; stroke-dashoffset: 0; stroke-linejoin: miter; stroke-miterlimit: 4; fill: rgb(255,255,255); fill-rule: nonzero; opacity: 1; visibility: hidden;" vector-effect="non-scaling-stroke"  x="-540" y="-540" rx="0" ry="0" width="1080" height="1080" />
</g>
<g transform="matrix(1 0 0 1 540 540)" id="b52127f3-0ad4-4402-8486-c987695bdd16"  >
</g>
<g transform="matrix(1 0 0 1 540 540)"  >
<path style="stroke: none; stroke-width: 1; stroke-dasharray: none; stroke-linecap: butt; stroke-dashoffset: 0; stroke-linejoin: miter; stroke-miterlimit: 4; fill: rgb(222,221,220); fill-rule: nonzero; opacity: 1;" vector-effect="non-scaling-stroke"  transform=" translate(-22.92, -33.52)" d="M 0 0 C 0.99758331 -0.0030011 1.99516663 -0.0060022 3.02297974 -0.00909424 C 4.09804779 0.00325256 5.17311584 0.01559937 6.28076172 0.02832031 C 7.93554031 0.03113007 7.93554031 0.03113007 9.62374878 0.03399658 C 11.9555768 0.04072089 14.28739348 0.0546428 16.61914062 0.07519531 C 20.20306791 0.10638108 23.7865559 0.11616821 27.37060547 0.12207031 C 29.63232962 0.13123868 31.89404928 0.14161392 34.15576172 0.15332031 C 35.77443649 0.15969513 35.77443649 0.15969513 37.42581177 0.16619873 C 38.91273026 0.18061005 38.91273026 0.18061005 40.4296875 0.1953125 C 41.3066629 0.2021405 42.18363831 0.20896851 43.08718872 0.21600342 C 45.08544922 0.35644531 45.08544922 0.35644531 46.08544922 1.35644531 C 46.17885356 2.98319309 46.20290093 4.61398583 46.19897461 6.2434082 C 46.19889908 7.28441177 46.19882355 8.32541534 46.19874573 9.39796448 C 46.19358444 10.53023972 46.18842316 11.66251495 46.18310547 12.82910156 C 46.18169052 13.98188095 46.18027557 15.13466034 46.17881775 16.32237244 C 46.17319927 20.02125595 46.16064363 23.72007995 46.14794922 27.41894531 C 46.1429366 29.91959548 46.13837328 32.4202466 46.13427734 34.92089844 C 46.12322384 41.06610119 46.10646774 47.211269 46.08544922 53.35644531 C 47.78701172 53.32550781 47.78701172 53.32550781 49.52294922 53.29394531 C 53.08544922 53.35644531 53.08544922 53.35644531 54.08544922 54.35644531 C 53.93035783 58.38882142 53.51731389 60.76749041 51.11083984 64.04931641 C 46.9633306 67.21216036 43.88861667 67.0806717 38.80419922 67.02050781 C 37.91309448 67.02529144 37.02198975 67.03007507 36.10388184 67.03500366 C 34.22450998 67.03839804 32.34507871 67.02922793 30.46582031 67.00830078 C 27.59419724 66.98152688 24.72648242 67.00806243 21.85498047 67.04003906 C 20.02554478 67.03673488 18.19611153 67.03032847 16.36669922 67.02050781 C 15.51136597 67.03062897 14.65603271 67.04075012 13.77478027 67.05117798 C 9.70533063 66.9714378 7.54888103 66.64661425 4.03588867 64.44702148 C 1.2413978 60.01900046 1.45573403 56.37648465 1.59716797 51.24316406 C 1.60778008 49.7888372 1.60778008 49.7888372 1.61860657 48.30513 C 1.64653048 45.21727395 1.70926619 42.13125056 1.77294922 39.04394531 C 1.79803464 36.94696635 1.82084738 34.84995887 1.84130859 32.75292969 C 1.89635084 27.62006522 1.98261063 22.48856567 2.08544922 17.35644531 C 1.44736328 17.36804688 0.80927734 17.37964844 0.15185547 17.39160156 C -1.08757813 17.40513672 -1.08757813 17.40513672 -2.35205078 17.41894531 C -3.58761719 17.43634766 -3.58761719 17.43634766 -4.84814453 17.45410156 C -6.91455078 17.35644531 -6.91455078 17.35644531 -7.91455078 16.35644531 C -8.06648241 14.23524607 -8.13638592 12.10789216 -8.16455078 9.98144531 C -8.19033203 8.81871094 -8.21611328 7.65597656 -8.24267578 6.45800781 C -7.91455078 3.35644531 -7.91455078 3.35644531 -6.70120239 1.68487549 C -4.34572104 -0.06649701 -2.92000789 -0.01211663 0 0 Z" stroke-linecap="round" />
</g>
<g transform="matrix(1 0 0 1 541.7 518.17)"  >
<path style="stroke: none; stroke-width: 1; stroke-dasharray: none; stroke-linecap: butt; stroke-dashoffset: 0; stroke-linejoin: miter; stroke-miterlimit: 4; fill: rgb(229,74,71); fill-rule: nonzero; opacity: 1;" vector-effect="non-scaling-stroke"  transform=" translate(-4.44, -7.66)" d="M 0 0 C 1.0830542 0.00326294 1.0830542 0.00326294 2.18798828 0.0065918 C 4.39405609 0.00975375 6.59878544 -0.01371013 8.8046875 -0.0390625 C 10.20182122 -0.04133526 11.59895856 -0.0420391 12.99609375 -0.04101562 C 14.27162109 -0.04399658 15.54714844 -0.04697754 16.86132812 -0.05004883 C 18.36663086 0.13424683 18.36663086 0.13424683 19.90234375 0.32226562 C 22.06956157 3.57309236 22.17455393 4.61458716 22.15234375 8.38476562 C 22.16007812 9.70154297 22.16007812 9.70154297 22.16796875 11.04492188 C 21.90234375 13.32226562 21.90234375 13.32226562 19.90234375 15.32226562 C 16.86132813 15.56518555 16.86132813 15.56518555 12.99609375 15.55273438 C 12.3155896 15.55227615 11.63508545 15.55181793 10.93395996 15.55134583 C 9.49485532 15.54832414 8.05575392 15.54044029 6.61669922 15.52807617 C 4.41101524 15.50983733 2.20575146 15.50756638 0 15.5078125 C -10.80258251 15.4698025 -10.80258251 15.4698025 -13.09765625 14.32226562 C -13.15154712 12.36423056 -13.19039842 10.40577654 -13.22265625 8.44726562 C -13.24585937 7.35671875 -13.2690625 6.26617187 -13.29296875 5.14257812 C -12.80033711 -1.97102274 -5.45237868 0.02176357 0 0 Z" stroke-linecap="round" />
</g>
<g transform="matrix(1 0 0 1 550.66 566.59)"  >
<path style="stroke: none; stroke-width: 1; stroke-dasharray: none; stroke-linecap: butt; stroke-dashoffset: 0; stroke-linejoin: miter; stroke-miterlimit: 4; fill: rgb(189,189,189); fill-rule: nonzero; opacity: 1;" vector-effect="non-scaling-stroke"  transform=" translate(19.5, -6.75)" d="M 0 0 C 0.495 0.495 0.495 0.495 1 1 C 0.84303543 5.08107884 0.44112476 7.41694036 -2.0456543 10.70385742 C -5.77615698 13.6032358 -8.61730005 13.64620971 -13.14453125 13.48828125 C -13.91431808 13.48120651 -14.68410492 13.47413177 -15.47721863 13.46684265 C -17.92332303 13.43896925 -20.36709384 13.37625137 -22.8125 13.3125 C -24.47587827 13.28740768 -26.13929262 13.26459613 -27.80273438 13.24414062 C -31.86938157 13.18916671 -35.93429589 13.10294927 -40 13 C -39.67 12.34 -39.34 11.68 -39 11 C -38.34 11 -37.68 11 -37 11 C -36.34 7.7 -35.68 4.4 -35 1 C -30.47924188 0.83125136 -25.95838284 0.6653709 -21.4375 0.5 C -20.16068359 0.45230469 -18.88386719 0.40460937 -17.56835938 0.35546875 C -15.70727539 0.28779297 -15.70727539 0.28779297 -13.80859375 0.21875 C -12.67220459 0.17685547 -11.53581543 0.13496094 -10.36499023 0.09179688 C -6.90401355 -0.00261851 -3.46168409 -0.08405677 0 0 Z" stroke-linecap="round" />
</g>
<g transform="matrix(1 0 0 1 541.66 544.31)"  >
<path style="stroke: none; stroke-width: 1; stroke-dasharray: none; stroke-linecap: butt; stroke-dashoffset: 0; stroke-linejoin: miter; stroke-miterlimit: 4; fill: rgb(172,166,157); fill-rule: nonzero; opacity: 1;" vector-effect="non-scaling-stroke"  transform=" translate(-16.5, -6.48)" d="M 0 0 C 2.12438339 -0.08078641 4.2496323 -0.13909141 6.375 -0.1875 C 7.55835938 -0.22230469 8.74171875 -0.25710937 9.9609375 -0.29296875 C 11.46527344 -0.14794922 11.46527344 -0.14794922 13 0 C 13.66 0.99 14.32 1.98 15 3 C 16.93076478 3.41428346 16.93076478 3.41428346 19.1328125 3.29296875 C 19.93847656 3.28330078 20.74414062 3.27363281 21.57421875 3.26367188 C 22.41597656 3.23853516 23.25773437 3.21339844 24.125 3.1875 C 24.97449219 3.17396484 25.82398437 3.16042969 26.69921875 3.14648438 C 28.79974837 3.11108219 30.89995293 3.05727401 33 3 C 33.38133299 4.9914056 33.71325582 6.99279077 34 9 C 33.67 9.33 33.34 9.66 33 10 C 29.17056684 9.99245432 25.35218755 9.92067023 21.52539062 9.78515625 C 20.72423828 9.77097656 19.92308594 9.75679687 19.09765625 9.7421875 C 18.36039307 9.7201123 17.62312988 9.69803711 16.86352539 9.67529297 C 16.24856201 9.78244629 15.63359863 9.88959961 15 10 C 14.01 11.485 14.01 11.485 13 13 C 9.9609375 13.29296875 9.9609375 13.29296875 6.375 13.1875 C 5.18648437 13.16042969 3.99796875 13.13335937 2.7734375 13.10546875 C 1.85820312 13.07066406 0.94296875 13.03585938 0 13 C -0.625 10.625 -0.625 10.625 -1 8 C -0.34 7.34 0.32 6.68 1 6 C 0.34 5.34 -0.32 4.68 -1 4 C -0.625 1.875 -0.625 1.875 0 0 Z" stroke-linecap="round" />
</g>
<g transform="matrix(1 0 0 1 514.08 515.43)"  >
<path style="stroke: none; stroke-width: 1; stroke-dasharray: none; stroke-linecap: butt; stroke-dashoffset: 0; stroke-linejoin: miter; stroke-miterlimit: 4; fill: rgb(189,189,189); fill-rule: nonzero; opacity: 1;" vector-effect="non-scaling-stroke"  transform=" translate(0.64, -8.41)" d="M 0 0 C 2.4375 0.8125 2.4375 0.8125 4.4375 2.8125 C 4.6328125 6.0703125 4.6328125 6.0703125 4.5625 9.9375 C 4.54445313 11.21882812 4.52640625 12.50015625 4.5078125 13.8203125 C 4.48460937 14.80773438 4.46140625 15.79515625 4.4375 16.8125 C 2.95843108 16.83939216 1.47922517 16.85884621 0 16.875 C -1.23556641 16.89240234 -1.23556641 16.89240234 -2.49609375 16.91015625 C -4.5625 16.8125 -4.5625 16.8125 -5.5625 15.8125 C -5.71443163 13.69130076 -5.78433514 11.56394685 -5.8125 9.4375 C -5.83828125 8.27476563 -5.8640625 7.11203125 -5.890625 5.9140625 C -5.5625 2.8125 -5.5625 2.8125 -4.20703125 0.88671875 C -2.5625 -0.1875 -2.5625 -0.1875 0 0 Z" stroke-linecap="round" />
</g>
<g transform="matrix(1 0 0 1 531.66 555.84)"  >
<path style="stroke: none; stroke-width: 1; stroke-dasharray: none; stroke-linecap: butt; stroke-dashoffset: 0; stroke-linejoin: miter; stroke-miterlimit: 4; fill: rgb(253,168,24); fill-rule: nonzero; opacity: 1;" vector-effect="non-scaling-stroke"  transform=" translate(-3.56, -3.1)" d="M 0 0 C 1.79244141 0.01740234 1.79244141 0.01740234 3.62109375 0.03515625 C 5.41740234 0.04869141 5.41740234 0.04869141 7.25 0.0625 C 8.17683594 0.07410156 9.10367188 0.08570313 10.05859375 0.09765625 C 10.38859375 1.74765625 10.71859375 3.39765625 11.05859375 5.09765625 C 8.29407342 6.47991641 6.01245745 6.19291012 2.93359375 6.16015625 C 1.83789062 6.15113281 0.7421875 6.14210938 -0.38671875 6.1328125 C -1.65128906 6.11541016 -1.65128906 6.11541016 -2.94140625 6.09765625 C -3.32359392 4.44150968 -3.65535727 2.77308601 -3.94140625 1.09765625 C -2.94140625 0.09765625 -2.94140625 0.09765625 0 0 Z" stroke-linecap="round" />
</g>
<g transform="matrix(1 0 0 1 531.66 548.38)"  >
<path style="stroke: none; stroke-width: 1; stroke-dasharray: none; stroke-linecap: butt; stroke-dashoffset: 0; stroke-linejoin: miter; stroke-miterlimit: 4; fill: rgb(254,163,9); fill-rule: nonzero; opacity: 1;" vector-effect="non-scaling-stroke"  transform=" translate(-7.5, -2.55)" d="M 0 0 C 4.62 0 9.24 0 14 0 C 14.33 1.32 14.66 2.64 15 4 C 14 5 14 5 11.05859375 5.09765625 C 9.26615234 5.08025391 9.26615234 5.08025391 7.4375 5.0625 C 5.64119141 5.04896484 5.64119141 5.04896484 3.80859375 5.03515625 C 2.88175781 5.02355469 1.95492188 5.01195312 1 5 C 0.67 3.35 0.34 1.7 0 0 Z" stroke-linecap="round" />
</g>
<g transform="matrix(1 0 0 1 541.16 533.34)"  >
<path style="stroke: none; stroke-width: 1; stroke-dasharray: none; stroke-linecap: butt; stroke-dashoffset: 0; stroke-linejoin: miter; stroke-miterlimit: 4; fill: rgb(139,139,139); fill-rule: nonzero; opacity: 1;" vector-effect="non-scaling-stroke"  transform=" translate(-12, -1.5)" d="M 0 0 C 7.92 0 15.84 0 24 0 C 24 0.99 24 1.98 24 3 C 16.08 3 8.16 3 0 3 C 0 2.01 0 1.02 0 0 Z" stroke-linecap="round" />
</g>
<g transform="matrix(1 0 0 1 531.66 540.34)"  >
<path style="stroke: none; stroke-width: 1; stroke-dasharray: none; stroke-linecap: butt; stroke-dashoffset: 0; stroke-linejoin: miter; stroke-miterlimit: 4; fill: rgb(254,161,3); fill-rule: nonzero; opacity: 1;" vector-effect="non-scaling-stroke"  transform=" translate(-3.56, -2.6)" d="M 0 0 C 1.79244141 0.01740234 1.79244141 0.01740234 3.62109375 0.03515625 C 5.41740234 0.04869141 5.41740234 0.04869141 7.25 0.0625 C 8.17683594 0.07410156 9.10367188 0.08570313 10.05859375 0.09765625 C 10.62109375 2.03515625 10.62109375 2.03515625 11.05859375 4.09765625 C 10.05859375 5.09765625 10.05859375 5.09765625 7.1171875 5.1953125 C 5.32474609 5.17791016 5.32474609 5.17791016 3.49609375 5.16015625 C 1.69978516 5.14662109 1.69978516 5.14662109 -0.1328125 5.1328125 C -1.05964844 5.12121094 -1.98648437 5.10960937 -2.94140625 5.09765625 C -3.50390625 3.16015625 -3.50390625 3.16015625 -3.94140625 1.09765625 C -2.94140625 0.09765625 -2.94140625 0.09765625 0 0 Z" stroke-linecap="round" />
</g>
<g transform="matrix(1 0 0 1 549.16 557.34)"  >
<path style="stroke: none; stroke-width: 1; stroke-dasharray: none; stroke-linecap: butt; stroke-dashoffset: 0; stroke-linejoin: miter; stroke-miterlimit: 4; fill: rgb(133,133,133); fill-rule: nonzero; opacity: 1;" vector-effect="non-scaling-stroke"  transform=" translate(-8, -1.5)" d="M 0 0 C 5.61 0 11.22 0 17 0 C 17 0.99 17 1.98 17 3 C 11.06 3 5.12 3 -1 3 C -0.67 2.01 -0.34 1.02 0 0 Z" stroke-linecap="round" />
</g>
</svg>